<svg width="30" height="30" viewBox="0 0 30 30" fill="none" xmlns="http://www.w3.org/2000/svg">
<path d="M0 0H29.8701V11.2987H0V0ZM27.2728 2.5974H2.59737V8.70132H27.2727L27.2728 2.5974ZM18.5714 8.70132H29.8701V17.5325H18.5714L18.5714 8.70132ZM27.2727 11.2987H21.1688V14.935H27.2728L27.2727 11.2987ZM0 8.70129H11.2987V17.5324H0V8.70129ZM8.70129 11.2987H2.5974V14.935H8.70129V11.2987ZM8.70129 8.70129H21.2987V17.5324H8.70129V8.70129ZM18.7013 11.2987H11.2987V14.935H18.7013V11.2987ZM18.5714 14.9351H29.8701V23.7662H18.5714V14.9351ZM27.2727 17.5325H21.1688V21.1688H27.2728L27.2727 17.5325ZM0 14.9351H11.2987V23.7662H0V14.9351ZM8.70129 17.5325H2.5974V21.1688H8.70129V17.5325ZM8.70129 14.9351H21.2987V23.7662H8.70129V14.9351ZM18.7013 17.5325H11.2987V21.1688H18.7013V17.5325ZM18.5714 21.1688H29.8701V30H18.5714V21.1688ZM27.2727 23.7663H21.1688V27.4026H27.2728L27.2727 23.7663ZM0 21.1688H11.2987V30H0V21.1688ZM8.70129 23.7662H2.5974V27.4026H8.70129V23.7662ZM8.70129 21.1688H21.2987V30H8.70129V21.1688ZM18.7013 23.7662H11.2987V27.4026H18.7013V23.7662Z" fill="white"/>
</svg>
