<svg width="24" height="24" viewBox="0 0 24 24" fill="none" xmlns="http://www.w3.org/2000/svg">
<path fill-rule="evenodd" clip-rule="evenodd" d="M15.7078 8.66393C14.7885 7.64448 13.4598 7 11.9912 7C9.24168 7 7 9.24168 7 12.0088C7 13.2896 7.48646 14.4603 8.28412 15.3454L5.02271 18.2807C3.15962 16.588 2 14.3039 2 12.0175C2 7.5219 6.48336 3 11.9825 3C14.6861 3 17.1527 4.09092 18.9618 5.73537L15.7078 8.66393ZM20.8623 8.06059C21.5883 9.29745 22 10.6579 22 12.0175C22 16.5219 17.4816 21 11.9825 21C10.4092 21 8.91897 20.6327 7.59314 20.003L11.0342 16.9077C11.344 16.9683 11.664 17 11.9912 17C14.7408 17 17 14.7583 17 12.0088C17 11.8562 16.993 11.7051 16.9794 11.5559L20.8623 8.06059Z" fill="#D3D5DA"/>
<path fill-rule="evenodd" clip-rule="evenodd" d="M22.7433 2.33104C23.0843 2.70998 23.0822 3.27788 22.757 3.6536L22.669 3.7433L14.7683 10.8535C14.9174 11.2089 15 11.5981 15 12.0053C15 13.655 13.6445 15 11.9948 15C11.4781 15 10.9914 14.8681 10.5664 14.6362L2.66897 21.7433C2.25846 22.1128 1.62617 22.0795 1.25671 21.669C0.915675 21.29 0.917797 20.7221 1.24302 20.3464L1.33104 20.2567L9.22767 13.1495C9.08102 12.7967 9.00001 12.4101 9.00001 12.0053C9.00001 10.345 10.345 9.00001 11.9948 9.00001C12.513 9.00001 13.0022 9.13378 13.4295 9.36841L21.331 2.25671C21.7416 1.88726 22.3738 1.92053 22.7433 2.33104Z" fill="#D3D5DA"/>
</svg>
