<svg width="24" height="25" viewBox="0 0 24 25" fill="none" xmlns="http://www.w3.org/2000/svg">
<path fill-rule="evenodd" clip-rule="evenodd" d="M15.7078 9.39562C14.7885 8.37617 13.4598 7.73169 11.9912 7.73169C9.24168 7.73169 7 9.97337 7 12.7404C7 14.0213 7.48646 15.192 8.28412 16.0771L5.02271 19.0124C3.15962 17.3197 2 15.0356 2 12.7492C2 8.25359 6.48336 3.73169 11.9825 3.73169C14.6861 3.73169 17.1527 4.82261 18.9618 6.46706L15.7078 9.39562ZM20.8623 8.79228C21.5883 10.0291 22 11.3896 22 12.7492C22 17.2536 17.4816 21.7317 11.9825 21.7317C10.4092 21.7317 8.91897 21.3644 7.59314 20.7347L11.0342 17.6394C11.344 17.6999 11.6641 17.7317 11.9912 17.7317C14.7408 17.7317 17 15.49 17 12.7404C17 12.5879 16.993 12.4368 16.9794 12.2876L20.8623 8.79228Z" fill="#98A2B3"/>
<path fill-rule="evenodd" clip-rule="evenodd" d="M22.7433 3.06273C23.0843 3.44167 23.0822 4.00957 22.757 4.38529L22.669 4.47499L14.7683 11.5852C14.9174 11.9406 15 12.3298 15 12.737C15 14.3867 13.6445 15.7317 11.9948 15.7317C11.4781 15.7317 10.9914 15.5998 10.5664 15.3679L2.66897 22.475C2.25846 22.8445 1.62617 22.8112 1.25671 22.4007C0.915675 22.0217 0.917797 21.4538 1.24302 21.0781L1.33104 20.9884L9.22767 13.8812C9.08102 13.5284 9.00001 13.1418 9.00001 12.737C9.00001 11.0767 10.345 9.7317 11.9948 9.7317C12.513 9.7317 13.0022 9.86547 13.4295 10.1001L21.331 2.9884C21.7416 2.61894 22.3738 2.65222 22.7433 3.06273Z" fill="#98A2B3"/>
</svg>
