<svg width="35" height="27" viewBox="0 0 35 27" fill="none" xmlns="http://www.w3.org/2000/svg">
<path d="M17.3571 0C7.77094 0 0 7.77094 0 17.3571C0 20.5393 0.858817 23.5201 2.35406 26.0839C2.69216 26.6637 3.33643 27 4.00781 27H30.7065C31.3779 27 32.0221 26.6637 32.3602 26.0839C33.8555 23.5201 34.7143 20.5393 34.7143 17.3571C34.7143 7.77094 26.9433 0 17.3571 0ZM17.3571 3.85714C18.2437 3.85714 18.9591 4.46766 19.1845 5.28248C19.1176 5.41868 19.0254 5.53741 18.9765 5.68446L18.4209 7.35208C18.1117 7.56241 17.7597 7.71429 17.3577 7.71429C16.2928 7.71429 15.4292 6.85065 15.4292 5.78571C15.4292 4.72078 16.2922 3.85714 17.3571 3.85714ZM5.78571 21.2143C4.72078 21.2143 3.85714 20.3506 3.85714 19.2857C3.85714 18.2208 4.72078 17.3571 5.78571 17.3571C6.85065 17.3571 7.71428 18.2208 7.71428 19.2857C7.71428 20.3506 6.85065 21.2143 5.78571 21.2143ZM8.67857 11.5714C7.61364 11.5714 6.75 10.7078 6.75 9.64286C6.75 8.57792 7.61364 7.71429 8.67857 7.71429C9.7435 7.71429 10.6071 8.57792 10.6071 9.64286C10.6071 10.7078 9.7435 11.5714 8.67857 11.5714ZM23.5509 7.20743L19.8546 18.2967C20.6797 19.0043 21.2143 20.0415 21.2143 21.2143C21.2143 21.9206 21.0106 22.5733 20.6791 23.1429H14.0352C13.7037 22.5733 13.5 21.9206 13.5 21.2143C13.5 19.1688 15.0971 17.512 17.11 17.3819L20.8069 6.29196C21.0582 5.535 21.8754 5.11975 22.6366 5.3777C23.3942 5.63022 23.8028 6.44987 23.5509 7.20743ZM24.4344 10.6548L25.3698 7.84929C25.5789 7.77154 25.7995 7.71489 26.0357 7.71489C27.1006 7.71489 27.9643 8.57853 27.9643 9.64346C27.9643 10.7084 27.1006 11.572 26.0357 11.572C25.3499 11.5714 24.7767 11.1935 24.4344 10.6548ZM28.9286 21.2143C27.8636 21.2143 27 20.3506 27 19.2857C27 18.2208 27.8636 17.3571 28.9286 17.3571C29.9935 17.3571 30.8571 18.2208 30.8571 19.2857C30.8571 20.3506 29.9935 21.2143 28.9286 21.2143Z" fill="white"/>
</svg>
