<svg width="36" height="27" viewBox="0 0 36 27" fill="none" xmlns="http://www.w3.org/2000/svg">
<path d="M31.7606 21.5733C32.2373 21.5727 32.6942 21.3832 33.0312 21.0461C33.3683 20.7091 33.5578 20.2521 33.5584 19.7755V1.79777C33.5578 1.32115 33.3683 0.864197 33.0312 0.527169C32.6942 0.190141 32.2373 0.000555096 31.7606 0H4.19475C3.71812 0.000555096 3.26117 0.190141 2.92414 0.527169C2.58711 0.864197 2.39753 1.32115 2.39697 1.79777V19.7755C2.39753 20.2521 2.58711 20.7091 2.92414 21.0461C3.26117 21.3832 3.71812 21.5727 4.19475 21.5733H31.7606ZM4.79401 2.39703H31.1614V19.1763H4.79401V2.39703Z" fill="white"/>
<path d="M35.9555 23.9703H0V26.3674H35.9555V23.9703Z" fill="white"/>
</svg>
