<svg width="30" height="38" viewBox="0 0 30 38" fill="none" xmlns="http://www.w3.org/2000/svg">
<path d="M24.491 16.7775L24.4927 16.7782C24.5502 16.8047 24.6137 16.8541 24.6708 16.934C24.7278 17.0139 24.7732 17.1177 24.7963 17.238C24.8186 17.3578 24.8168 17.4833 24.7913 17.6015C24.7657 17.7201 24.7185 17.8211 24.6607 17.8979L11.5365 35.3075C11.5365 35.3076 11.5364 35.3077 11.5363 35.3078C11.4599 35.4086 11.3754 35.4555 11.3066 35.4703C11.2408 35.4845 11.1677 35.4746 11.0918 35.4266C11.0123 35.3763 10.9291 35.2821 10.8735 35.1406C10.818 34.9995 10.7994 34.8338 10.8247 34.6721C10.8248 34.6719 10.8248 34.6716 10.8248 34.6713L12.5378 24.0454L12.5981 23.6717L12.2547 23.5123L5.50123 20.3769L5.50081 20.3767C5.44313 20.35 5.37933 20.3001 5.32226 20.2195C5.26504 20.1387 5.21978 20.0339 5.19718 19.9127C5.17461 19.7916 5.1767 19.6647 5.20296 19.5455C5.22926 19.4261 5.27738 19.3249 5.33596 19.2485L5.33597 19.2485L5.33839 19.2453L18.4628 1.83531C18.4629 1.83525 18.4629 1.83519 18.4629 1.83513C18.5394 1.73423 18.6239 1.68734 18.6927 1.6725C18.7585 1.65828 18.8317 1.66817 18.9076 1.71623C18.9871 1.76656 19.0702 1.86071 19.1259 2.00225C19.1813 2.14322 19.1999 2.30885 19.1747 2.4705C19.1746 2.47082 19.1746 2.47114 19.1745 2.47147L17.4568 13.1089L17.3965 13.4826L17.7398 13.6421L24.491 16.7775ZM12.3229 30.9694L13.2159 31.3499L23.1287 18.1889L23.5008 17.6949L22.9399 17.4345L16.7547 14.5628C16.7544 14.5627 16.7542 14.5626 16.7539 14.5624C16.6709 14.5231 16.5768 14.4355 16.5108 14.2875C16.4447 14.1392 16.4206 13.9581 16.4494 13.7812L16.4495 13.7804L17.6753 6.1806L16.7824 5.79999L6.86604 18.9538L6.49389 19.4474L7.05444 19.7081L13.2446 22.5872C13.2448 22.5873 13.245 22.5874 13.2452 22.5875C13.3282 22.6268 13.4225 22.7144 13.4885 22.8625C13.5547 23.0109 13.5788 23.1919 13.5499 23.3689L13.5498 23.3696L12.3229 30.9694Z" fill="white" stroke="white"/>
</svg>
