<svg width="1113" height="555" viewBox="0 0 1113 555" fill="none" xmlns="http://www.w3.org/2000/svg">
<g opacity="0.9" filter="url(#filter0_d_284_402)">
<path d="M72 534C46.5949 534 26 513.405 26 488L26 59C26 33.5949 46.5949 13 72 13L1059 13C1084.41 13 1105 33.5949 1105 59L1105 488C1105 513.405 1084.41 534 1059 534L72 534Z" fill="#060606" fill-opacity="0.7" shape-rendering="crispEdges"/>
<path d="M502.5 268.5C502.5 308.541 470.712 341 431.5 341C392.288 341 360.5 308.541 360.5 268.5C360.5 228.459 392.288 196 431.5 196C470.712 196 502.5 228.459 502.5 268.5Z" fill="#0C4D16" fill-opacity="0.5" shape-rendering="crispEdges"/>
</g>
<defs>
<filter id="filter0_d_284_402" x="0" y="0" width="1113" height="555" filterUnits="userSpaceOnUse" color-interpolation-filters="sRGB">
<feFlood flood-opacity="0" result="BackgroundImageFix"/>
<feColorMatrix in="SourceAlpha" type="matrix" values="0 0 0 0 0 0 0 0 0 0 0 0 0 0 0 0 0 0 127 0" result="hardAlpha"/>
<feOffset dx="-9" dy="4"/>
<feGaussianBlur stdDeviation="8.5"/>
<feComposite in2="hardAlpha" operator="out"/>
<feColorMatrix type="matrix" values="0 0 0 0 0 0 0 0 0 0 0 0 0 0 0 0 0 0 0.25 0"/>
<feBlend mode="normal" in2="BackgroundImageFix" result="effect1_dropShadow_284_402"/>
<feBlend mode="normal" in="SourceGraphic" in2="effect1_dropShadow_284_402" result="shape"/>
</filter>
</defs>
</svg>
