<svg width="30" height="38" viewBox="0 0 30 38" fill="none" xmlns="http://www.w3.org/2000/svg">
<path d="M24.4915 16.7775L24.4932 16.7782C24.5507 16.8047 24.6142 16.8541 24.6713 16.934C24.7283 17.0139 24.7737 17.1177 24.7967 17.238C24.8191 17.3578 24.8173 17.4833 24.7917 17.6015C24.7661 17.7201 24.719 17.8211 24.6612 17.8979L11.537 35.3075C11.537 35.3076 11.5369 35.3077 11.5368 35.3078C11.4604 35.4086 11.3759 35.4555 11.3071 35.4703C11.2413 35.4845 11.1682 35.4746 11.0922 35.4266C11.0127 35.3763 10.9296 35.2821 10.874 35.1406C10.8185 34.9995 10.7999 34.8338 10.8252 34.6721C10.8252 34.6719 10.8253 34.6716 10.8253 34.6713L12.5383 24.0454L12.5986 23.6717L12.2552 23.5123L5.50172 20.3769L5.5013 20.3767C5.44361 20.35 5.37982 20.3001 5.32275 20.2195C5.26552 20.1387 5.22027 20.0339 5.19767 19.9127C5.1751 19.7916 5.17719 19.6647 5.20345 19.5455C5.22975 19.4261 5.27787 19.3249 5.33644 19.2485L5.33646 19.2485L5.33888 19.2453L18.4633 1.83531C18.4633 1.83525 18.4634 1.83519 18.4634 1.83513C18.5399 1.73423 18.6244 1.68734 18.6932 1.6725C18.759 1.65828 18.8322 1.66817 18.9081 1.71623C18.9876 1.76656 19.0707 1.86071 19.1264 2.00225C19.1818 2.14322 19.2004 2.30885 19.1751 2.4705C19.1751 2.47082 19.175 2.47114 19.175 2.47147L17.4573 13.1089L17.397 13.4826L17.7403 13.6421L24.4915 16.7775ZM12.3233 30.9694L13.2163 31.3499L23.1292 18.1889L23.5013 17.6949L22.9404 17.4345L16.7552 14.5628C16.7549 14.5627 16.7546 14.5626 16.7543 14.5624C16.6714 14.5231 16.5773 14.4355 16.5113 14.2875C16.4452 14.1392 16.4211 13.9581 16.4499 13.7812L16.45 13.7804L17.6758 6.1806L16.7829 5.79999L6.86653 18.9538L6.49438 19.4474L7.05492 19.7081L13.2451 22.5872C13.2453 22.5873 13.2455 22.5874 13.2457 22.5875C13.3287 22.6268 13.423 22.7144 13.489 22.8625C13.5552 23.0109 13.5793 23.1919 13.5504 23.3689L13.5503 23.3696L12.3233 30.9694Z" fill="white" stroke="white"/>
</svg>
